<svg xmlns="http://www.w3.org/2000/svg" width="84" height="24" viewBox="0 0 84 24"><g fill="none"><g fill="#1b1919"><g><path d="M16.7 5.3C18.1 5.3 19.3 4.1 19.3 2.7 19.3 1.2 18.1 0 16.7 0 15.3 0 14.1 1.2 14.1 2.7 14.1 4.1 15.3 5.3 16.7 5.3"></path><path d="M19.4 7L7.5 7 7.5 6.3C7.5 4.7 9.1 4.7 9.8 4.7 10.7 4.7 11.1 4.8 11.1 4.8L11.1 0.5C11.1 0.5 10.3 0.3 9.2 0.3 6.8 0.3 2.2 1 2.2 6.4L2.2 7 0 7 0 11 2.2 11 2.2 19.4 0.2 19.4 0.2 23.4 9.9 23.4 9.9 19.4 7.5 19.4 7.5 11 14 11 14 19.4 12 19.4 12 23.4 21.4 23.4 21.4 19.4 19.4 19.4 19.4 7Z"></path><path d="M39.6 7L31.1 7 31.1 11 32.5 11 30.7 16.9C30.3 17.9 30.2 19.1 30.2 19.1L30.1 19.1C30.1 19.1 30 17.9 29.7 16.9L27.9 11 29.3 11 29.3 7 20.8 7 20.8 11 22.6 11 27 23.4 33.3 23.4 37.8 11 39.6 11 39.6 7Z"></path><path d="M45.2 13.2C45.4 11.9 46.2 10.8 47.7 10.8 48.9 10.8 49.8 11.9 49.8 13.2L45.2 13.2ZM55.3 14.6C55.3 10 52.6 6.7 47.9 6.7 42.7 6.7 39.6 10.4 39.6 15.2 39.6 19.5 42.6 23.7 48.3 23.7 52.6 23.7 55.2 21.5 55.2 21.5L53.3 17.7C53.3 17.7 51.1 19.2 48.8 19.2 47.1 19.2 45.4 18.3 45 16.2L55.2 16.2C55.2 16.2 55.3 15.1 55.3 14.6Z"></path><path d="M78.1 10.8L78 10.8C78 10.8 78.1 10.5 78.1 10L78.1 9.1C78.1 7.7 77.3 7 75.8 7L70.8 7 70.8 11 72.2 11C72.7 11 72.9 11.3 72.9 11.7L72.9 19.4 70.8 19.4 70.8 23.4 80.5 23.4 80.5 19.4 78.3 19.4 78.3 17C78.3 14.1 79.7 12.1 82.7 12.1 83.4 12.1 83.8 12.2 83.8 12.2L83.8 6.8C83.8 6.8 83.5 6.8 83.2 6.8 80.8 6.8 78.8 8.6 78.1 10.8"></path><path d="M63.8 10.8L63.8 10.8C63.8 10.8 63.8 10.5 63.8 10L63.8 9.1C63.8 7.7 63 7 61.6 7L56.5 7 56.5 11 58 11C58.4 11 58.7 11.3 58.7 11.7L58.7 19.4 56.5 19.4 56.5 23.4 66.2 23.4 66.2 19.4 64.1 19.4 64.1 17C64.1 14.1 65.5 12.1 68.5 12.1 69.1 12.1 69.6 12.2 69.6 12.2L69.6 6.8C69.6 6.8 69.2 6.8 68.9 6.8 66.5 6.8 64.5 8.6 63.8 10.8"></path></g></g></g></svg>
