<svg width="100" height="100" xmlns="http://www.w3.org/2000/svg"><path fill="none" d="M-1-1h102v102H-1z"/><g><g stroke="null" fill-rule="evenodd" fill="#1b1919"><path d="M50 11l-21 3a76 76 0 0 0-19 8 45 45 0 0 0 0 6l-7 5a77 77 0 0 1 0-13v-2l2-1A84 84 0 0 1 27 7a84 84 0 0 1 23-4c9 0 17 2 24 4a84 84 0 0 1 22 10l2 1v2a74 74 0 0 1 0 6 76 76 0 0 1-46 70l-2 1-1-1c-14-6-26-16-34-28a76 76 0 0 1-5-10l9 2a69 69 0 0 0 31 28 69 69 0 0 0 29-24 68 68 0 0 0 11-41 66 66 0 0 0 0-1 76 76 0 0 0-18-8c-7-2-14-3-22-3"/><path d="M7 39l3-4c6-3 23-5 24-8h-4l6-5 6 1-3 4 10-6c5 1 8 2 11 5l-2-4c4 1 12 1 16 5 8 18 8 35-6 50 4-8 7-17 5-26-2 5-5 11-10 13 2-4 3-7 2-12-4 2-9 5-15 5 0-2-2-7-4-8-8 2-19 3-26 0l1 3 2 1c-4 0-10 0-13-3l-1-3 4-1c1 0 8 3 16 2 8 0 19-4 19-4l4 4c6-4 12-4 19-4-5-2-13-3-18 0l-2-3h-2c-7 4-22 6-31 3-1 0-8-1-9 1l-1-1c-1-2-2-3-1-5zm29 23c-2 5-5 9-10 12l4 3c4-3 6-11 6-15zM4 36c4-5 17-7 22-9l8-8h6a244 244 0 0 1 4 0l5-4 6 2 2 2 13 1c5 1 8 4 8 4 14 19 6 42-7 59-14 11-32 6-43-2v-1l-7-9c5-3 9-9 11-13l6-3-5 1a53 53 0 0 1-4 0H16c-5-1-9-4-9-4v-4c-2 2-3 4-3 7 1 4 10 9 3 13v-4c-1 2-3 2-5 3 4-4 2-5 1-9-2-5-1-9 3-11-3-2-3-4-3-6l1-5zm15 0h-2l-2 2 1 1h1l1-2 2-1h-1zm27-5h4-4zm5-5c-2 0-3 2-5 4l-6 2h5c2 1 5 2 6 1l-2-1h4l-2-2 4 2c0-2-3-6-4-6"/></g></g></svg>
